<svg xmlns="http://www.w3.org/2000/svg" xmlns:xlink="http://www.w3.org/1999/xlink" viewBox="0 0 83.34 87.48"><defs><style>.cls-1{fill:#111;}.cls-2{fill:url(#linear-gradient);}.cls-3{fill:url(#linear-gradient-2);}.cls-4{fill:url(#linear-gradient-3);}</style><linearGradient id="linear-gradient" x1="-1493.1" y1="797.14" x2="-1492.69" y2="797.14" gradientTransform="matrix(95.86, 0, 0, -95.86, 143131.82, 76477.99)" gradientUnits="userSpaceOnUse"><stop offset="0" stop-color="#64e617"/><stop offset="1" stop-color="#17e64b"/></linearGradient><linearGradient id="linear-gradient-2" x1="-1493.61" y1="795.13" x2="-1493.2" y2="795.13" gradientTransform="matrix(85.24, 71.52, 71.52, -85.24, 70479.61, 174616.81)" gradientUnits="userSpaceOnUse"><stop offset="0" stop-color="#01d4fb"/><stop offset="1" stop-color="#0633e4"/></linearGradient><linearGradient id="linear-gradient-3" x1="-1494.5" y1="797.84" x2="-1494.09" y2="797.84" gradientTransform="matrix(73.06, 0, 0, -73.06, 109236.69, 58358.07)" gradientUnits="userSpaceOnUse"><stop offset="0" stop-color="#f76252"/><stop offset="1" stop-color="#e64932"/></linearGradient></defs><g id="Layer_2" data-name="Layer 2"><g id="Layer_1-2" data-name="Layer 1"><path class="cls-1" d="M18,10.53c5.13,0,7.66,4.5,7.66,9s-2.53,9-7.66,9H9.34v10.7a1.13,1.13,0,0,1-1.12,1.13H2.59a1.14,1.14,0,0,1-1.13-1.13V11.66a1.14,1.14,0,0,1,1.13-1.13ZM13.17,26.29c3.15,0,4.62-3.38,4.62-6.75s-1.47-6.76-4.62-6.76H9.34V26.29Z"/><path class="cls-1" d="M46.72,10.53c5.07,0,7.66,4.45,7.66,8.84S51.85,28,46.72,28h-.34l9.46,12.39H48.36c-.91,0-1.24-.57-1.69-1.13L38.05,28V39.24a1.13,1.13,0,0,1-1.12,1.13H31.3a1.14,1.14,0,0,1-1.13-1.13V11.66a1.14,1.14,0,0,1,1.13-1.13Zm-8.67,2.25v13h3.83c3.1,0,4.62-3.15,4.62-6.31,0-3.32-1.58-6.64-4.62-6.64Z"/><path class="cls-1" d="M81.4,32.54c0,6.7-5.69,7.83-11.32,7.83s-11.2-1.07-11.2-7.83V18.41c0-6.75,5.57-7.82,11.2-7.82S81.4,11.71,81.4,18.41Zm-14.64.9c0,3.1,1.69,4.68,3.38,4.68s3.38-1.58,3.38-4.68V17.51c0-3.1-1.69-4.67-3.38-4.67s-3.38,1.57-3.38,4.67Z"/><path class="cls-1" d="M66.76,60l5.63-3.38H78a1.13,1.13,0,0,1,1.13,1.12V85.32A1.14,1.14,0,0,1,78,86.45H72.39a1.13,1.13,0,0,1-1.12-1.13V61.11L68.45,62.8Z"/><path class="cls-2" d="M23.88,41.14l.24-1c2.51.55,3.2,2.87,3.1,4.82,0,1.51-.22,3.15-.21,4.77,0,3.07.59,5.76,4.59,7.76a12.55,12.55,0,0,1,7.51,11.63c-.06,7.81-6.15,15.93-13.6,16-4.64,0-9.34-3.38-12.76-11.35C9.69,66.16.49,65.61,0,58.82a7.5,7.5,0,0,1,.49-2.56c1.16-3.36,4.13-3.87,6.57-3.9s5,0,7-1.65c3-2,2-10.32,8.62-10.71a7.79,7.79,0,0,1,1.41.13h.06l-.24,1-.18,1a6,6,0,0,0-1.05-.1c-4.06-.4-3.39,6.45-7.3,10.23-2.69,2.22-5.82,2-8.21,2.13S3.29,54.7,2.43,57a5.58,5.58,0,0,0-.37,1.86C1.57,63,10.66,64.42,14.64,73,18,80.59,22,83.09,25.51,83.09c5.8,0,11.52-7.16,11.53-14,0-3.89-1.73-7.5-6.34-9.77-4.81-2.29-5.81-6.3-5.76-9.62,0-1.79.23-3.46.22-4.77-.09-1.87-.21-2.44-1.52-2.81l.24-1-.18,1Z"/><path class="cls-3" d="M66.76,37.6l-1-.16a25.51,25.51,0,0,1,3.58-9.66,17.87,17.87,0,0,0,2.89-9.55A15.64,15.64,0,0,0,67.47,7a16.68,16.68,0,0,0-12-4.95,21.34,21.34,0,0,0-13.36,5,6.22,6.22,0,0,0-2.66,5c-.09,4.17,4.11,9.58,4.18,16a12.87,12.87,0,0,1-1.72,6.46,10.57,10.57,0,0,0-1.49,5.22c0,3.44,2.05,6.43,5,8.6a16.74,16.74,0,0,0,9.33,3.4h.09c5.3,0,9.64-6.28,10.93-14.34l1,.16,1,.17c-1.37,8.43-5.89,15.9-12.94,16.07h-.11c-6.58-.06-16.19-5.42-16.34-14.06a12.75,12.75,0,0,1,1.75-6.23,10.8,10.8,0,0,0,1.46-5.45c.07-5.48-4.08-10.68-4.18-16a8.27,8.27,0,0,1,3.42-6.64A23.38,23.38,0,0,1,55.49,0,18.7,18.7,0,0,1,68.92,5.55a17.68,17.68,0,0,1,5.35,12.68,19.9,19.9,0,0,1-3.21,10.66,23.42,23.42,0,0,0-3.29,8.88Z"/><path class="cls-4" d="M71.64,80.74l-.82-.62a16.79,16.79,0,0,1,5-4.54,10.29,10.29,0,0,0,5.44-8.88,10.11,10.11,0,0,0-.49-3.1c-1.54-4.88-6-7.53-11.07-7.55a14.51,14.51,0,0,0-3,.31c-3,.68-3.21,2.57-3.64,5.85-.32,3.1-.61,7.17-4.52,9.72a5.68,5.68,0,0,0-2.88,4.93c-.05,3.22,2.7,6.93,5.08,8.09a4.33,4.33,0,0,0,2,.47c2.5,0,5.69-2.07,8.07-5.3l.82.62.83.62c-2.64,3.51-6.14,6.08-9.72,6.12a6.34,6.34,0,0,1-2.9-.69,12.17,12.17,0,0,1-6.21-9.93,7.75,7.75,0,0,1,3.82-6.65c3-1.95,3.25-5,3.59-8.22.26-3.07.9-6.78,5.27-7.65a16.5,16.5,0,0,1,3.4-.35c5.78,0,11.21,3.15,13,9a12.21,12.21,0,0,1,.58,3.72,12.35,12.35,0,0,1-6.46,10.66,14.89,14.89,0,0,0-4.41,4Z"/><path class="cls-1" d="M66.76,60l5.63-3.38H78a1.13,1.13,0,0,1,1.13,1.12v11a3.94,3.94,0,0,1-7.88,0V61.11L68.45,62.8Z"/><path class="cls-1" d="M70.08,10.59c-5.63,0-11.2,1.07-11.2,7.82V29.93h7.88V17.51c0-3.1,1.69-4.67,3.38-4.67s3.38,1.57,3.38,4.67V29.93H81.4V18.41c0-6.7-5.69-7.82-11.32-7.82"/><path class="cls-1" d="M46.38,28h.34a7.17,7.17,0,0,0,6.93-4.72h-8a4.13,4.13,0,0,1-3.76,2.47H38.05V23.26H30.17v16a1.14,1.14,0,0,0,1.13,1.13h5.63a1.13,1.13,0,0,0,1.12-1.13V28l8.62,11.26c.45.57.78,1.13,1.68,1.13h7.49Z"/><path class="cls-1" d="M50.21,85.32a1.62,1.62,0,0,1-1.4,1.13h-7l9-27.59H38.62V56.61H60Z"/></g></g></svg>